<?xml version="1.0" encoding="UTF-8"?><svg id="_레이어_2" xmlns="http://www.w3.org/2000/svg" viewBox="0 0 324.25 72.99"><defs><style>.cls-1{fill:#231916;stroke-width:0px;}</style></defs><g id="_레이어_1-2"><path class="cls-1" d="M7.81,69.45l-.3,2.88c-.04.26-.17.38-.4.35-1.34-.13-3.33-.13-5.99,0-.23.01-.35-.13-.35-.42,0-.43.62-1.29,1.87-2.58s1.97-2.03,2.17-2.21c.41-.39.8-.85,1.16-1.4.36-.54.54-1.24.54-2.1,0-.57-.21-1.08-.62-1.53-.42-.45-1-.67-1.77-.67-.57,0-1.06.19-1.45.56s-.59.77-.59,1.2c0,.14.01.23.04.25s.05.04.09.04c.13,0,.28.08.46.24s.26.37.26.64c0,.29-.09.51-.26.65s-.39.21-.65.21c-.36,0-.62-.16-.78-.48-.16-.32-.24-.65-.24-.97,0-.74.28-1.45.85-2.13s1.42-1.02,2.56-1.02c.95,0,1.75.32,2.39.96.64.64.97,1.4.97,2.28,0,.63-.21,1.3-.64,1.99-.43.7-.87,1.23-1.33,1.61-.4.33-1.08.99-2.03,2s-1.52,1.63-1.7,1.89h3.85c.41,0,.69-.21.84-.62l.33-1.65c.06-.29.2-.43.42-.42.22.02.32.18.3.46Z"/><path class="cls-1" d="M18.71,66.96c0,1.57-.33,2.96-.98,4.17-.66,1.21-1.57,1.82-2.74,1.82s-2.09-.61-2.74-1.82-.98-2.6-.98-4.17.33-2.96.98-4.17,1.57-1.82,2.74-1.82,2.08.61,2.74,1.82c.66,1.21.98,2.6.98,4.17ZM17.56,66.96c0-1.37-.23-2.58-.68-3.62-.45-1.04-1.09-1.56-1.91-1.56s-1.46.52-1.91,1.56-.68,2.25-.68,3.62.23,2.58.68,3.62,1.09,1.56,1.91,1.56,1.46-.52,1.91-1.56c.45-1.04.68-2.25.68-3.62Z"/><path class="cls-1" d="M29.03,69.45l-.3,2.88c-.04.26-.17.38-.4.35-1.34-.13-3.33-.13-5.99,0-.23.01-.35-.13-.35-.42,0-.43.62-1.29,1.87-2.58s1.97-2.03,2.17-2.21c.41-.39.8-.85,1.16-1.4.36-.54.54-1.24.54-2.1,0-.57-.21-1.08-.62-1.53-.42-.45-1-.67-1.77-.67-.57,0-1.06.19-1.45.56s-.59.77-.59,1.2c0,.14.01.23.04.25s.05.04.09.04c.13,0,.28.08.46.24s.26.37.26.64c0,.29-.09.51-.26.65s-.39.21-.65.21c-.36,0-.62-.16-.78-.48-.16-.32-.24-.65-.24-.97,0-.74.28-1.45.85-2.13s1.42-1.02,2.56-1.02c.95,0,1.75.32,2.39.96.64.64.97,1.4.97,2.28,0,.63-.21,1.3-.64,1.99-.43.7-.87,1.23-1.33,1.61-.4.33-1.08.99-2.03,2s-1.52,1.63-1.7,1.89h3.85c.41,0,.69-.21.84-.62l.33-1.65c.06-.29.2-.43.42-.42.22.02.32.18.3.46Z"/><path class="cls-1" d="M32.72,69.88c-.19,0-.31-.12-.37-.37-.06-.23,0-.48.16-.74l4.78-7.63c.13-.2.29-.3.47-.3.12,0,.18.11.18.32v7.89h1.56c.29,0,.44.13.44.4s-.15.42-.44.42h-1.56v1.51c0,.35.18.53.53.53h.79c.29,0,.44.12.44.37s-.15.39-.44.39h-3.55c-.29,0-.44-.13-.44-.39s.15-.37.44-.37h.63c.35,0,.53-.18.53-.53v-1.51h-4.15ZM36.86,63.25l-3.67,5.8h3.67v-5.8Z"/><path class="cls-1" d="M51.47,63.88c0-.42-.16-.63-.47-.63h-1.41c-.29,0-.44-.12-.44-.35s.15-.35.44-.35c.8,0,1.37-.16,1.72-.47s.53-.62.53-.94c0-.2.11-.3.33-.3.25,0,.37.11.37.32v10.23c0,.35.18.53.53.53h1.41c.29,0,.44.12.44.37s-.15.39-.44.39h-4.89c-.29,0-.44-.13-.44-.39s.15-.37.44-.37h1.35c.35,0,.53-.18.53-.53v-7.5Z"/><path class="cls-1" d="M60.12,63.88c0-.42-.16-.63-.47-.63h-1.41c-.29,0-.44-.12-.44-.35s.15-.35.44-.35c.8,0,1.37-.16,1.72-.47s.53-.62.53-.94c0-.2.11-.3.33-.3.25,0,.37.11.37.32v10.23c0,.35.18.53.53.53h1.41c.29,0,.44.12.44.37s-.15.39-.44.39h-4.89c-.29,0-.44-.13-.44-.39s.15-.37.44-.37h1.35c.35,0,.53-.18.53-.53v-7.5Z"/><path class="cls-1" d="M77.75,66.59c.5.19.96.53,1.37,1.02.41.49.62,1.14.62,1.95,0,1.08-.38,1.91-1.12,2.5-.75.59-1.58.89-2.48.89-.82,0-1.6-.22-2.35-.67s-1.12-1.16-1.12-2.14c0-.32.1-.58.3-.79s.45-.32.74-.32c.23,0,.45.08.63.23s.28.39.28.7c0,.22-.07.4-.2.52s-.26.21-.38.27c-.05.02-.08.05-.11.09s-.04.08-.04.14c0,.18.18.42.55.73s.86.47,1.49.47c.71,0,1.33-.22,1.85-.67.52-.45.77-1.11.77-2,0-.77-.23-1.38-.69-1.81-.46-.43-1.03-.65-1.71-.65h-1.12c-.29,0-.44-.14-.44-.42,0-.26.15-.39.44-.39h1.35c.38,0,.78-.2,1.21-.6.43-.4.65-.96.65-1.69s-.21-1.3-.62-1.69c-.41-.39-.91-.58-1.51-.58-.67,0-1.14.15-1.42.45s-.41.52-.41.66c0,.08.03.13.09.16.21.11.35.21.42.33s.11.25.11.41c0,.32-.09.56-.28.73-.19.17-.37.25-.54.25-.35,0-.59-.1-.73-.31-.13-.2-.2-.46-.2-.78,0-.62.28-1.21.83-1.78s1.3-.84,2.25-.84c.81,0,1.54.24,2.21.72.66.48.99,1.24.99,2.27,0,.6-.17,1.15-.5,1.65-.33.5-.72.83-1.17.98Z"/><path class="cls-1" d="M90.4,66.96c0,1.57-.33,2.96-.98,4.17-.66,1.21-1.57,1.82-2.74,1.82s-2.09-.61-2.74-1.82-.98-2.6-.98-4.17.33-2.96.98-4.17,1.57-1.82,2.74-1.82,2.08.61,2.74,1.82c.66,1.21.98,2.6.98,4.17ZM89.26,66.96c0-1.37-.23-2.58-.68-3.62-.45-1.04-1.09-1.56-1.91-1.56s-1.46.52-1.91,1.56-.68,2.25-.68,3.62.23,2.58.68,3.62,1.09,1.56,1.91,1.56,1.46-.52,1.91-1.56c.45-1.04.68-2.25.68-3.62Z"/><path class="cls-1" d="M102.41,71.39c0,.35.18.53.53.53h.76c.29,0,.44.12.44.37s-.15.39-.44.39h-3.76c-.29,0-.44-.13-.44-.39s.15-.37.44-.37h.9c.35,0,.53-.18.53-.53v-8.82c0-.35-.18-.53-.53-.53h-.9c-.29,0-.44-.12-.44-.37s.15-.39.44-.39h3.76c.29,0,.44.13.44.39s-.15.37-.44.37h-.76c-.35,0-.53.18-.53.53v3.85h5.38v-3.85c0-.35-.18-.53-.53-.53h-.72c-.29,0-.44-.12-.44-.37s.15-.39.44-.39h3.73c.29,0,.44.13.44.39s-.15.37-.44.37h-.9c-.35,0-.53.18-.53.53v8.82c0,.35.18.53.53.53h.9c.29,0,.44.12.44.37s-.15.39-.44.39h-3.73c-.29,0-.44-.13-.44-.39s.15-.37.44-.37h.72c.35,0,.53-.18.53-.53v-4.18h-5.38v4.18Z"/><path class="cls-1" d="M117.83,68.08l-3.22-5.62c-.22-.28-.6-.42-1.12-.42h-.33c-.29,0-.44-.12-.44-.37s.15-.39.44-.39h3.87c.29,0,.44.13.44.39s-.15.37-.44.37h-.33c-.47,0-.74.02-.83.07s-.05.17.09.37l2.46,4.55,2.37-4.55c.09-.18.08-.3-.04-.37-.08-.05-.33-.07-.76-.07h-.33c-.29,0-.44-.12-.44-.37s.15-.39.44-.39h3.48c.29,0,.44.13.44.39s-.15.37-.44.37h-.33c-.49,0-.85.14-1.07.42l-2.86,5.52v3.41c0,.35.18.53.53.53h.77c.29,0,.44.12.44.37s-.15.39-.44.39h-3.74c-.29,0-.44-.13-.44-.39s.15-.37.44-.37h.88c.35,0,.53-.18.53-.53v-3.3Z"/><path class="cls-1" d="M127.37,62.57c0-.35-.18-.53-.53-.53h-.86c-.29,0-.44-.12-.44-.37s.15-.39.44-.39h3.74c.29,0,.44.13.44.39s-.15.37-.44.37h-.77c-.35,0-.53.18-.53.53v6.49c0,2.03,1,3.04,2.99,3.04s2.99-1.28,2.99-3.83v-5.69c0-.35-.18-.53-.53-.53h-.7c-.29,0-.44-.12-.44-.37s.15-.39.44-.39h3.27c.29,0,.44.13.44.39s-.15.37-.44.37h-.67c-.35,0-.53.18-.53.53v5.69c0,3.13-1.36,4.69-4.08,4.69-2.53,0-3.8-1.42-3.8-4.25v-6.13Z"/><path class="cls-1" d="M141.75,71.39c0,.35.18.53.53.53h.69c.29,0,.44.12.44.37s-.15.39-.44.39h-3.25c-.29,0-.44-.13-.44-.39s.15-.37.44-.37h.69c.35,0,.53-.18.53-.53v-8.82c0-.35-.18-.53-.53-.53h-.67c-.29,0-.44-.12-.44-.37s.15-.39.44-.39h2.02c.14,0,.26.08.37.25l5.82,8.93v-7.89c0-.35-.18-.53-.53-.53h-.68c-.29,0-.44-.12-.44-.37s.15-.39.44-.39h3.27c.29,0,.44.13.44.39s-.15.37-.44.37h-.72c-.35,0-.53.18-.53.53v9.98c0,.23-.09.35-.26.35-.15,0-.29-.09-.4-.28l-6.33-9.67v8.44Z"/><path class="cls-1" d="M157.34,70.35l1.85-6.82-.26-.95c-.13-.36-.33-.54-.6-.54h-.62c-.29,0-.44-.12-.44-.37s.15-.39.44-.39h3.41c.29,0,.44.13.44.39s-.15.37-.44.37h-.88c-.17,0-.26.03-.3.09-.02.05,0,.2.09.46l2.18,7.77,2.07-7.7c.07-.28.07-.45,0-.52s-.38-.1-.93-.1c-.29,0-.44-.12-.44-.37s.15-.39.44-.39h2.9c.29,0,.44.13.44.39s-.15.37-.44.37c-.48,0-.77.04-.88.11-.09.06-.22.38-.37.95l-2.6,9.54c-.08.23-.2.35-.35.35s-.28-.12-.37-.35l-2.07-7.58-2.07,7.58c-.08.23-.2.35-.35.35s-.28-.12-.37-.35l-2.83-10.05c-.13-.36-.33-.54-.6-.54h-.56c-.29,0-.44-.12-.44-.37s.15-.39.44-.39h3.43c.29,0,.44.13.44.39s-.15.37-.44.37h-.84c-.16,0-.26.03-.3.09-.02.05,0,.2.09.46l2.14,7.77Z"/><path class="cls-1" d="M179.13,67.01c0,1.57-.44,2.95-1.31,4.13s-2.13,1.78-3.77,1.78-2.9-.59-3.77-1.78-1.31-2.56-1.31-4.13.44-2.95,1.31-4.13,2.13-1.78,3.77-1.78,2.9.59,3.77,1.78,1.31,2.56,1.31,4.13ZM177.96,67.01c0-1.37-.33-2.56-.99-3.58s-1.63-1.52-2.91-1.52-2.25.51-2.91,1.52-.99,2.21-.99,3.58.33,2.56.99,3.58,1.63,1.52,2.91,1.52,2.25-.51,2.91-1.52.99-2.21.99-3.58Z"/><path class="cls-1" d="M192.37,67.01c0,1.57-.44,2.95-1.31,4.13s-2.13,1.78-3.77,1.78-2.9-.59-3.77-1.78-1.31-2.56-1.31-4.13.44-2.95,1.31-4.13,2.13-1.78,3.77-1.78,2.9.59,3.77,1.78,1.31,2.56,1.31,4.13ZM191.19,67.01c0-1.37-.33-2.56-.99-3.58s-1.63-1.52-2.91-1.52-2.25.51-2.91,1.52-.99,2.21-.99,3.58.33,2.56.99,3.58,1.63,1.52,2.91,1.52,2.25-.51,2.91-1.52.99-2.21.99-3.58Z"/><path class="cls-1" d="M197.78,71.39c0,.35.18.53.53.53h.69c.29,0,.44.12.44.37s-.15.39-.44.39h-3.25c-.29,0-.44-.13-.44-.39s.15-.37.44-.37h.69c.35,0,.53-.18.53-.53v-8.82c0-.35-.18-.53-.53-.53h-.67c-.29,0-.44-.12-.44-.37s.15-.39.44-.39h2.02c.14,0,.26.08.37.25l5.82,8.93v-7.89c0-.35-.18-.53-.53-.53h-.68c-.29,0-.44-.12-.44-.37s.15-.39.44-.39h3.27c.29,0,.44.13.44.39s-.15.37-.44.37h-.72c-.35,0-.53.18-.53.53v9.98c0,.23-.09.35-.26.35-.15,0-.29-.09-.4-.28l-6.33-9.67v8.44Z"/><path class="cls-1" d="M218.42,68.17c-.35,0-.53.18-.53.53v3.83c0,.29-.12.44-.35.44-.21,0-.33-.15-.35-.44l-.14-1.16c-.64,1.04-1.66,1.56-3.04,1.56s-2.58-.53-3.54-1.6-1.45-2.43-1.45-4.1.46-3.17,1.39-4.38,2.13-1.81,3.6-1.81c.59,0,1.15.12,1.7.35s.95.51,1.2.83l.25-.74c.09-.29.22-.44.39-.44.23,0,.36.15.39.44l.16,3.9c.01.29-.11.44-.35.44-.2,0-.32-.15-.35-.44-.28-2.34-1.41-3.51-3.37-3.51-1.05,0-1.94.5-2.66,1.51s-1.08,2.3-1.08,3.87c0,1.46.38,2.64,1.13,3.52s1.63,1.32,2.61,1.32c1.51,0,2.47-.72,2.88-2.16l-.14-1.23c-.05-.35-.25-.53-.6-.53h-.83c-.29,0-.44-.12-.44-.35s.15-.35.44-.35h3.97c.29,0,.44.12.44.35s-.15.35-.44.35h-.88Z"/><path class="cls-1" d="M231.2,72.94c-.88,0-1.6-.23-2.16-.7s-.84-1.17-.84-2.09c0-.46.11-.82.32-1.09s.47-.4.79-.4c.26,0,.48.09.67.28s.28.41.28.67-.07.48-.22.67-.39.28-.73.28c-.08,0-.16-.01-.23-.04.01.48.19.87.53,1.17s.77.45,1.28.45c1.5,0,2.25-1.21,2.25-3.62v-5.94c0-.35-.18-.53-.53-.53h-.84c-.29,0-.44-.12-.44-.37s.15-.39.44-.39h3.74c.29,0,.44.13.44.39s-.15.37-.44.37h-.79c-.35,0-.53.18-.53.53v5.94c0,2.95-1,4.43-2.99,4.43Z"/><path class="cls-1" d="M238.6,72.67c-.29,0-.44-.13-.44-.39s.15-.37.44-.37h.77c.35,0,.53-.18.53-.53v-8.65c0-.47-.19-.7-.56-.7h-.7c-.29,0-.44-.13-.44-.39s.15-.37.44-.37h7.82c.36,0,.55.18.56.53l.11,3.34c-.11.29-.21.44-.32.44-.19,0-.3-.15-.33-.44-.21-1.52-.47-2.41-.77-2.65-.39-.3-1.37-.46-2.94-.46h-1.27c-.35,0-.53.18-.53.53v3.92h.67c.82,0,1.35-.11,1.58-.32.25-.22.42-.76.53-1.6.04-.29.14-.44.32-.44.21,0,.32.15.32.44v4.54c0,.29-.11.44-.32.44-.18,0-.28-.15-.32-.44-.11-.82-.28-1.35-.53-1.58-.21-.19-.74-.28-1.58-.28h-.67v4.15c0,.35.18.53.53.53h1.44c1.57,0,2.55-.15,2.94-.46.3-.25.56-1.13.77-2.65.04-.29.15-.44.33-.44.21,0,.32.15.32.44l-.11,3.34c-.01.35-.2.53-.56.53h-8.03Z"/><path class="cls-1" d="M260.62,67.01c0,1.57-.44,2.95-1.31,4.13s-2.13,1.78-3.77,1.78-2.9-.59-3.77-1.78-1.31-2.56-1.31-4.13.44-2.95,1.31-4.13,2.13-1.78,3.77-1.78,2.9.59,3.77,1.78,1.31,2.56,1.31,4.13ZM259.44,67.01c0-1.37-.33-2.56-.99-3.58s-1.63-1.52-2.91-1.52-2.25.51-2.91,1.52-.99,2.21-.99,3.58.33,2.56.99,3.58,1.63,1.52,2.91,1.52,2.25-.51,2.91-1.52.99-2.21.99-3.58Z"/><path class="cls-1" d="M266.04,71.39c0,.35.18.53.53.53h.69c.29,0,.44.12.44.37s-.15.39-.44.39h-3.25c-.29,0-.44-.13-.44-.39s.15-.37.44-.37h.69c.35,0,.53-.18.53-.53v-8.82c0-.35-.18-.53-.53-.53h-.67c-.29,0-.44-.12-.44-.37s.15-.39.44-.39h2.02c.14,0,.26.08.37.25l5.82,8.93v-7.89c0-.35-.18-.53-.53-.53h-.68c-.29,0-.44-.12-.44-.37s.15-.39.44-.39h3.27c.29,0,.44.13.44.39s-.15.37-.44.37h-.72c-.35,0-.53.18-.53.53v9.98c0,.23-.09.35-.26.35-.15,0-.29-.09-.4-.28l-6.33-9.67v8.44Z"/><path class="cls-1" d="M286.67,68.17c-.35,0-.53.18-.53.53v3.83c0,.29-.12.44-.35.44-.21,0-.33-.15-.35-.44l-.14-1.16c-.64,1.04-1.66,1.56-3.04,1.56s-2.58-.53-3.54-1.6-1.45-2.43-1.45-4.1.46-3.17,1.39-4.38,2.13-1.81,3.6-1.81c.59,0,1.15.12,1.7.35s.95.51,1.2.83l.25-.74c.09-.29.22-.44.39-.44.23,0,.36.15.39.44l.16,3.9c.01.29-.11.44-.35.44-.2,0-.32-.15-.35-.44-.28-2.34-1.41-3.51-3.37-3.51-1.05,0-1.94.5-2.66,1.51s-1.08,2.3-1.08,3.87c0,1.46.38,2.64,1.13,3.52s1.63,1.32,2.61,1.32c1.51,0,2.47-.72,2.88-2.16l-.14-1.23c-.05-.35-.25-.53-.6-.53h-.83c-.29,0-.44-.12-.44-.35s.15-.35.44-.35h3.97c.29,0,.44.12.44.35s-.15.35-.44.35h-.88Z"/><path class="cls-1" d="M300.19,61.28h2.41c.29,0,.44.13.44.39s-.15.37-.44.37h-.83c-.35,0-.53.18-.53.53v8.82c0,.35.18.53.53.53h.88c.29,0,.44.12.44.37s-.15.39-.44.39h-3.76c-.29,0-.44-.13-.44-.39s.15-.37.44-.37h.77c.35,0,.53-.18.53-.53v-8.51l-3.27,9.63c-.08.23-.19.35-.32.35-.14,0-.25-.12-.33-.35l-3.43-9.6v8.47c0,.35.18.53.53.53h.69c.29,0,.44.12.44.37s-.15.39-.44.39h-3.22c-.29,0-.44-.13-.44-.39s.15-.37.44-.37h.63c.35,0,.53-.18.53-.53v-8.82c0-.35-.18-.53-.53-.53h-.63c-.29,0-.44-.12-.44-.37s.15-.39.44-.39h2.43c.08,0,.16.09.23.26l3.25,9.17,3.04-9.03c.08-.27.22-.4.4-.4Z"/><path class="cls-1" d="M308.63,71.39c0,.35.18.53.53.53h.77c.29,0,.44.12.44.37s-.15.39-.44.39h-3.69c-.29,0-.44-.13-.44-.39s.15-.37.44-.37h.77c.35,0,.53-.18.53-.53v-8.82c0-.35-.18-.53-.53-.53h-.77c-.29,0-.44-.12-.44-.37s.15-.39.44-.39h3.71c.29,0,.44.13.44.39s-.15.37-.44.37h-.79c-.35,0-.53.18-.53.53v8.82Z"/><path class="cls-1" d="M315.57,71.39c0,.35.18.53.53.53h.69c.29,0,.44.12.44.37s-.15.39-.44.39h-3.25c-.29,0-.44-.13-.44-.39s.15-.37.44-.37h.69c.35,0,.53-.18.53-.53v-8.82c0-.35-.18-.53-.53-.53h-.67c-.29,0-.44-.12-.44-.37s.15-.39.44-.39h2.02c.14,0,.26.08.37.25l5.82,8.93v-7.89c0-.35-.18-.53-.53-.53h-.68c-.29,0-.44-.12-.44-.37s.15-.39.44-.39h3.27c.29,0,.44.13.44.39s-.15.37-.44.37h-.72c-.35,0-.53.18-.53.53v9.98c0,.23-.09.35-.26.35-.15,0-.29-.09-.4-.28l-6.33-9.67v8.44Z"/><rect class="cls-1" x="16.19" y="0" width="8.69" height="50.01"/><rect class="cls-1" x="76.76" y="0" width="8.69" height="50.01"/><rect class="cls-1" x="29.94" y="0" width="5.27" height="50.01"/><rect class="cls-1" x="182.99" y="0" width="5.27" height="50.01"/><rect class="cls-1" x="291.87" y="0" width="5.27" height="50.01"/><rect class="cls-1" x="51.83" y="0" width="5.27" height="50.01"/><rect class="cls-1" x="63.72" y="0" width="5.27" height="50.01"/><rect class="cls-1" x="10.27" y="0" width="2.17" height="50.01"/><rect class="cls-1" x="38.24" y="0" width="2.17" height="50.01"/><rect class="cls-1" x="45.22" y="0" width="2.17" height="50.01"/><rect class="cls-1" x="5.13" y="0" width="2.17" height="50.01"/><rect class="cls-1" x="70.94" y="0" width="2.17" height="50.01"/><rect class="cls-1" x="59.43" y="0" width="2.17" height="50.01"/><rect class="cls-1" x="92.84" y="0" width="2.17" height="50.01"/><rect class="cls-1" x="87.7" y="0" width="2.17" height="50.01"/><rect class="cls-1" x="305.81" y="0" width="8.69" height="50.01"/><rect class="cls-1" x="299.99" y="0" width="2.17" height="50.01"/><rect class="cls-1" x="316.75" y="0" width="2.17" height="50.01"/><rect class="cls-1" x="321.68" y="0" width="2.17" height="50.01"/><rect class="cls-1" x="165.47" y="0" width="8.69" height="50.01"/><rect class="cls-1" x="176.41" y="0" width="2.17" height="50.01"/><rect class="cls-1" x="0" y="0" width="2.17" height="50.01"/><rect class="cls-1" x="209.47" y="0" width="8.69" height="50.01"/><rect class="cls-1" x="270.04" y="0" width="8.69" height="50.01"/><rect class="cls-1" x="223.21" y="0" width="5.27" height="50.01"/><rect class="cls-1" x="245.11" y="0" width="5.27" height="50.01"/><rect class="cls-1" x="252.09" y="0" width="5.27" height="50.01"/><rect class="cls-1" x="203.54" y="0" width="2.17" height="50.01"/><rect class="cls-1" x="231.51" y="0" width="2.17" height="50.01"/><rect class="cls-1" x="238.49" y="0" width="2.17" height="50.01"/><rect class="cls-1" x="198.41" y="0" width="2.17" height="50.01"/><rect class="cls-1" x="264.22" y="0" width="2.17" height="50.01"/><rect class="cls-1" x="259.08" y="0" width="2.17" height="50.01"/><rect class="cls-1" x="286.11" y="0" width="2.17" height="50.01"/><rect class="cls-1" x="280.98" y="0" width="2.17" height="50.01"/><rect class="cls-1" x="193.27" y="0" width="2.17" height="50.01"/><rect class="cls-1" x="137.29" y="0" width="8.69" height="50.01"/><rect class="cls-1" x="124.12" y="0" width="5.27" height="50.01"/><rect class="cls-1" x="104.72" y="0" width="5.27" height="50.01"/><rect class="cls-1" x="149.73" y="0" width="2.17" height="50.01"/><rect class="cls-1" x="118.93" y="0" width="2.17" height="50.01"/><rect class="cls-1" x="133.32" y="0" width="2.17" height="50.01"/><rect class="cls-1" x="114.44" y="0" width="2.17" height="50.01"/><rect class="cls-1" x="154.86" y="0" width="2.17" height="50.01"/><rect class="cls-1" x="99.28" y="0" width="2.17" height="50.01"/><rect class="cls-1" x="161.4" y="0" width="2.17" height="50.01"/></g></svg>